<svg width="38" height="39" viewBox="0 0 38 39" fill="none" xmlns="http://www.w3.org/2000/svg">
<g id="G-on-clear.svg" clip-path="url(#clip0_3_1186)">
<g id="Page-1">
<g id="G-on-clear">
<g id="logo_googleg_48dp">
<path id="Shape" fill-rule="evenodd" clip-rule="evenodd" d="M27.64 19.705C27.64 19.0668 27.5827 18.4532 27.4764 17.8641H19V21.3454H23.8436C23.635 22.4704 23.0009 23.4236 22.0477 24.0618V26.32H24.9564C26.6582 24.7532 27.64 22.4459 27.64 19.705Z" fill="#4285F4"/>
<path id="Shape_2" fill-rule="evenodd" clip-rule="evenodd" d="M19 28.5004C21.43 28.5004 23.4673 27.6945 24.9564 26.32L22.0477 24.0618C21.2418 24.6018 20.2109 24.9209 19 24.9209C16.6559 24.9209 14.6718 23.3377 13.9641 21.2104H10.9573V23.5422C12.4382 26.4836 15.4818 28.5004 19 28.5004Z" fill="#34A853"/>
<path id="Shape_3" fill-rule="evenodd" clip-rule="evenodd" d="M13.9641 21.2104C13.7841 20.6704 13.6818 20.0936 13.6818 19.5004C13.6818 18.9072 13.7841 18.3304 13.9641 17.7904V15.4586H10.9573C10.3477 16.6736 10 18.0481 10 19.5004C10 20.9527 10.3477 22.3272 10.9573 23.5422L13.9641 21.2104Z" fill="#FBBC05"/>
<path id="Shape_4" fill-rule="evenodd" clip-rule="evenodd" d="M19 14.08C20.3214 14.08 21.5077 14.5341 22.4405 15.4259L25.0218 12.8445C23.4632 11.3922 21.4259 10.5004 19 10.5004C15.4818 10.5004 12.4382 12.5172 10.9573 15.4586L13.9641 17.7904C14.6718 15.6632 16.6559 14.08 19 14.08Z" fill="#EA4335"/>
</g>
</g>
</g>
</g>
<defs>
<clipPath id="clip0_3_1186">
<rect width="38" height="38" fill="white" transform="translate(0 0.500427)"/>
</clipPath>
</defs>
</svg>
