<svg width="39" height="39" viewBox="0 0 39 39" fill="none" xmlns="http://www.w3.org/2000/svg">
<path id="Vector" d="M11.31 0H27.69C33.93 0 39 5.07 39 11.31V27.69C39 30.6896 37.8084 33.5663 35.6874 35.6874C33.5663 37.8084 30.6896 39 27.69 39H11.31C5.07 39 0 33.93 0 27.69V11.31C0 8.3104 1.19159 5.43366 3.31262 3.31262C5.43366 1.19159 8.3104 0 11.31 0ZM10.92 3.9C9.05818 3.9 7.27262 4.63961 5.95611 5.95611C4.63961 7.27262 3.9 9.05818 3.9 10.92V28.08C3.9 31.9605 7.0395 35.1 10.92 35.1H28.08C29.9418 35.1 31.7274 34.3604 33.0439 33.0439C34.3604 31.7274 35.1 29.9418 35.1 28.08V10.92C35.1 7.0395 31.9605 3.9 28.08 3.9H10.92ZM29.7375 6.825C30.384 6.825 31.004 7.08181 31.4611 7.53893C31.9182 7.99605 32.175 8.61604 32.175 9.2625C32.175 9.90897 31.9182 10.529 31.4611 10.9861C31.004 11.4432 30.384 11.7 29.7375 11.7C29.091 11.7 28.471 11.4432 28.0139 10.9861C27.5568 10.529 27.3 9.90897 27.3 9.2625C27.3 8.61604 27.5568 7.99605 28.0139 7.53893C28.471 7.08181 29.091 6.825 29.7375 6.825ZM19.5 9.75C22.0859 9.75 24.5658 10.7772 26.3943 12.6057C28.2228 14.4342 29.25 16.9141 29.25 19.5C29.25 22.0859 28.2228 24.5658 26.3943 26.3943C24.5658 28.2228 22.0859 29.25 19.5 29.25C16.9141 29.25 14.4342 28.2228 12.6057 26.3943C10.7772 24.5658 9.75 22.0859 9.75 19.5C9.75 16.9141 10.7772 14.4342 12.6057 12.6057C14.4342 10.7772 16.9141 9.75 19.5 9.75ZM19.5 13.65C17.9485 13.65 16.4605 14.2663 15.3634 15.3634C14.2663 16.4605 13.65 17.9485 13.65 19.5C13.65 21.0515 14.2663 22.5395 15.3634 23.6366C16.4605 24.7337 17.9485 25.35 19.5 25.35C21.0515 25.35 22.5395 24.7337 23.6366 23.6366C24.7337 22.5395 25.35 21.0515 25.35 19.5C25.35 17.9485 24.7337 16.4605 23.6366 15.3634C22.5395 14.2663 21.0515 13.65 19.5 13.65Z" fill="#F8F8F8"/>
</svg>
