<svg width="39" height="39" viewBox="0 0 39 39" fill="none" xmlns="http://www.w3.org/2000/svg">
<path id="Vector" d="M0 2.79338C0 1.25044 1.28212 0 2.86406 0H36.1359C37.7179 0 39 1.25044 39 2.79338V36.2066C39 37.7496 37.7179 39 36.1359 39H2.86406C1.28212 39 0 37.7496 0 36.2066V2.79338ZM12.0486 32.6479V15.0369H6.19613V32.6479H12.0486ZM9.12356 12.6311C11.1638 12.6311 12.4337 11.2807 12.4337 9.58912C12.3971 7.86094 11.1662 6.54713 9.16256 6.54713C7.15894 6.54713 5.85 7.86337 5.85 9.58912C5.85 11.2807 7.11994 12.6311 9.08456 12.6311H9.12356ZM21.0868 32.6479V22.8126C21.0868 22.2861 21.1258 21.7596 21.2818 21.3842C21.7035 20.3336 22.6663 19.2441 24.2848 19.2441C26.403 19.2441 27.2488 20.8577 27.2488 23.2269V32.6479H33.1012V22.5469C33.1012 17.1356 30.2153 14.6201 26.364 14.6201C23.2586 14.6201 21.8668 16.3264 21.0868 17.5281V17.589H21.0478C21.0608 17.5687 21.0738 17.5483 21.0868 17.5281V15.0369H15.2368C15.3099 16.6896 15.2368 32.6479 15.2368 32.6479H21.0868Z" fill="#F8F8F8"/>
</svg>
