<svg width="39" height="39" viewBox="0 0 39 39" fill="none" xmlns="http://www.w3.org/2000/svg">
<path id="Vector" d="M33.3166 5.6746C31.5198 3.86876 29.3797 2.43696 27.021 1.46271C24.6623 0.488462 22.1322 -0.0087362 19.5784 0.00011616C8.87789 0.00011616 0.156784 8.67759 0.156784 19.3246C0.156784 22.737 1.05829 26.052 2.74372 28.977L0 39L10.2889 36.309C13.1307 37.8495 16.3251 38.6685 19.5784 38.6685C30.2789 38.6685 39 29.991 39 19.3441C39 14.1766 36.9814 9.32109 33.3166 5.6746ZM19.5784 35.3925C16.6779 35.3925 13.8362 34.6125 11.3472 33.15L10.7593 32.799L4.64472 34.398L6.27136 28.47L5.8794 27.8655C4.26794 25.3051 3.41228 22.3456 3.41005 19.3246C3.41005 10.4716 10.6613 3.25661 19.5588 3.25661C23.8703 3.25661 27.9271 4.9336 30.9648 7.97559C32.4689 9.46532 33.6609 11.2373 34.4717 13.1888C35.2824 15.1402 35.6958 17.2324 35.6879 19.3441C35.7271 28.197 28.4759 35.3925 19.5784 35.3925ZM28.4367 23.3805C27.9467 23.1465 25.5558 21.9766 25.1246 21.8011C24.6739 21.6451 24.3603 21.5671 24.0271 22.035C23.694 22.5225 22.7729 23.6145 22.4985 23.9265C22.2241 24.258 21.9301 24.297 21.4402 24.0435C20.9502 23.8095 19.3824 23.283 17.5402 21.6451C16.0899 20.3581 15.1296 18.7786 14.8357 18.2911C14.5613 17.8036 14.7965 17.5501 15.0513 17.2966C15.2668 17.0821 15.5412 16.7311 15.7764 16.4581C16.0116 16.1851 16.1095 15.9706 16.2663 15.6586C16.4231 15.3271 16.3447 15.0541 16.2271 14.8201C16.1095 14.5861 15.1296 12.2071 14.7377 11.2321C14.3457 10.2961 13.9342 10.4131 13.6402 10.3936H12.6995C12.3663 10.3936 11.8568 10.5106 11.406 10.9981C10.9749 11.4856 9.7206 12.6556 9.7206 15.0346C9.7206 17.4136 11.4648 19.7146 11.7 20.0266C11.9352 20.3581 15.1296 25.233 19.9899 27.3195C21.1462 27.8265 22.0477 28.119 22.7533 28.3335C23.9095 28.704 24.9678 28.6455 25.8106 28.5285C26.7513 28.392 28.6915 27.3585 29.0834 26.2275C29.495 25.0965 29.495 24.141 29.3578 23.9265C29.2206 23.712 28.9266 23.6145 28.4367 23.3805Z" fill="#F8F8F8"/>
</svg>
